<?xml version="1.0" encoding="UTF-8" standalone="no"?>
<svg
   xmlns:dc="http://purl.org/dc/elements/1.1/"
   xmlns:cc="http://creativecommons.org/ns#"
   xmlns:rdf="http://www.w3.org/1999/02/22-rdf-syntax-ns#"
   xmlns:svg="http://www.w3.org/2000/svg"
   xmlns="http://www.w3.org/2000/svg"
   version="1.1"
   id="svg4256"
   viewBox="0 0 268.16239 67.549155"
   height="67.549156"
   width="268.16238">
  <defs
     id="defs4258">
    <clipPath
       clipPathUnits="userSpaceOnUse"
       id="clipPath4428-3">
      <path
         d="m 510.431,786.189 -0.541,-1.04 9.592,-27.649 0.57,-0.384 0.017,-10e-4 0.527,0.307 8.318,27.791 -1.122,1.164 -17.361,-0.188 z"
         id="path4430-4" />
    </clipPath>
    <clipPath
       clipPathUnits="userSpaceOnUse"
       id="clipPath4416-4">
      <path
         d="m 328.819,730.323 215.433,0 0,56.291 -215.433,0 0,-56.291 z"
         id="path4418-7" />
    </clipPath>
    <clipPath
       clipPathUnits="userSpaceOnUse"
       id="clipPath4392-2">
      <path
         d="m 529.422,774.901 -8.969,-40.487 0.317,-0.76 0.15,-0.068 1.016,0.267 22.255,33.711 -0.025,1.759 -13.561,6.235 -1.183,-0.657 z"
         id="path4394-7" />
    </clipPath>
    <clipPath
       clipPathUnits="userSpaceOnUse"
       id="clipPath4380-4">
      <path
         d="m 328.819,730.323 215.433,0 0,56.291 -215.433,0 0,-56.291 z"
         id="path4382-2" />
    </clipPath>
    <clipPath
       clipPathUnits="userSpaceOnUse"
       id="clipPath4356-6">
      <path
         d="m 496.948,769.093 -0.056,-1.092 20.973,-24.604 0.753,-0.122 0.095,0.047 0.368,0.682 -8.944,29.937 -1.518,1.024 -11.671,-5.872 z"
         id="path4358-8" />
    </clipPath>
    <clipPath
       clipPathUnits="userSpaceOnUse"
       id="clipPath4308-1">
      <path
         d="m 328.819,730.323 215.433,0 0,56.291 -215.433,0 0,-56.291 z"
         id="path4310-7" />
    </clipPath>
  </defs>
  <metadata
     id="metadata4261">
    <rdf:RDF>
      <cc:Work
         rdf:about="">
        <dc:format>image/svg+xml</dc:format>
        <dc:type
           rdf:resource="http://purl.org/dc/dcmitype/StillImage" />
        <dc:title></dc:title>
      </cc:Work>
    </rdf:RDF>
  </metadata>
  <g
     transform="translate(-237.84739,-143.80193)"
     id="layer1">
    <g
       transform="translate(0.50000952,-0.49999568)"
       id="g6755">
      <g
         id="g4304"
         transform="matrix(1.25,0,0,-1.25,-175.22899,1127.7738)">
        <g
           id="g4306"
           clip-path="url(#clipPath4308-1)">
          <g
             id="g4312"
             transform="translate(442.2458,735.6381)">
            <path
               d="m 0,0 c 0.018,0.33 0.037,0.859 0.054,1.584 l 0,13.904 -0.045,1.349 c -0.011,0.287 -0.025,0.482 -0.039,0.584 -0.015,0.108 -0.038,0.201 -0.07,0.287 -0.104,0.343 -0.335,0.585 -0.682,0.73 -0.32,0.135 -0.793,0.2 -1.407,0.205 l 0,0.473 7.94,0 c 1.154,-0.002 2.197,-0.077 3.128,-0.227 0.93,-0.149 1.679,-0.355 2.252,-0.617 1.66,-0.787 2.48,-2.112 2.471,-3.997 C 13.621,11.581 11.849,9.86 8.181,9.417 L 7.566,9.318 C 8.391,9.288 9.507,9.013 10.026,8.893 10.541,8.774 11.046,8.585 11.541,8.327 13.488,7.349 14.447,5.785 14.428,3.622 14.438,0.995 13.157,-0.713 10.557,-1.52 9.989,-1.682 9.277,-1.81 8.416,-1.903 7.552,-1.996 6.614,-2.044 5.603,-2.046 l -7.792,0 0,0.474 c 0.917,0.011 1.548,0.151 1.827,0.48 0.117,0.112 0.2,0.235 0.255,0.376 C -0.051,-0.573 -0.018,-0.329 0,0 m 2.446,18.466 0,-8.824 3.098,0 c 3.603,0.021 5.469,1.518 5.489,4.515 0.025,2.909 -1.942,4.329 -5.755,4.309 l -2.832,0 z M 11.653,3.858 C 11.633,5.915 10.889,7.369 9.406,8.182 8.956,8.412 8.384,8.589 7.697,8.714 7.011,8.838 6.254,8.901 5.426,8.904 l -2.98,0 0,-10.299 2.98,0 c 2.159,-0.01 3.737,0.393 4.709,1.238 0.493,0.405 0.867,0.955 1.127,1.645 0.259,0.69 0.388,1.482 0.391,2.37"
               style="fill:#3a3a3a;fill-opacity:1;fill-rule:evenodd;stroke:none"
               id="path4314" />
          </g>
          <g
             id="g4316"
             transform="translate(468.0378,734.196)">
            <path
               d="M 0,0 C -0.161,0.319 -0.274,0.698 -0.323,1.667 L -0.337,1.954 -0.528,1.739 C -0.755,1.482 -0.978,1.26 -1.196,1.071 -1.415,0.88 -1.669,0.685 -1.954,0.487 -2.581,0.027 -3.185,-0.297 -3.764,-0.486 -4.343,-0.674 -4.996,-0.766 -5.723,-0.76 -6.989,-0.765 -7.961,-0.465 -8.656,0.126 -9.045,0.476 -9.35,0.915 -9.573,1.448 -9.796,1.98 -9.91,2.552 -9.915,3.166 -9.9,5.43 -8.51,6.891 -5.667,7.538 c 0.752,0.174 1.547,0.317 2.383,0.429 0.839,0.112 1.789,0.204 2.852,0.276 l 0.109,1.975 c 0.002,0.675 -0.031,1.222 -0.097,1.639 -0.066,0.422 -0.175,0.79 -0.328,1.101 -0.422,0.822 -1.282,1.216 -2.525,1.216 -1.994,0.01 -3.075,-0.939 -3.187,-2.827 -0.012,-0.3 -0.04,-0.511 -0.079,-0.639 -0.038,-0.12 -0.103,-0.209 -0.195,-0.274 -0.198,-0.133 -0.514,-0.21 -0.968,-0.215 -0.977,-0.015 -1.343,0.276 -1.327,0.765 0.006,0.512 0.176,1.007 0.517,1.484 0.341,0.479 0.816,0.895 1.43,1.25 1.104,0.612 2.518,0.924 4.252,0.929 1.897,-0.005 3.169,-0.435 3.864,-1.256 0.281,-0.346 0.49,-0.773 0.626,-1.29 0.135,-0.517 0.204,-1.172 0.203,-1.969 L 1.86,9.963 1.845,9.191 1.804,7.152 1.774,4.348 1.745,2.99 C 1.747,2.351 1.774,1.864 1.818,1.319 1.862,0.788 2.052,0.196 2.477,0.039 2.92,-0.125 3.346,-0.19 4.157,-0.195 c 0.596,0.012 1.055,0.08 1.366,0.212 0.355,0.151 0.573,0.471 0.667,0.925 0.092,0.443 0.132,1.117 0.122,2.02 l 0,7.914 c 0.02,1.077 -0.105,1.835 -0.412,2.231 -0.3,0.387 -0.858,0.554 -1.625,0.546 l 0,0.42 4.222,0.308 0,-3.363 0.22,0.392 c 0.625,1.113 1.334,1.9 2.123,2.373 0.789,0.473 1.778,0.707 2.969,0.695 1.79,0.024 3.037,-0.576 3.767,-1.775 0.267,-0.401 0.462,-0.885 0.578,-1.451 0.116,-0.567 0.174,-1.292 0.171,-2.175 l 0,-6.115 C 18.314,2.05 18.352,1.371 18.44,0.93 c 0.09,-0.454 0.306,-0.773 0.662,-0.92 0.294,-0.121 0.98,-0.187 1.565,-0.203 0.548,0.017 0.972,0.084 1.262,0.211 0.346,0.151 0.555,0.472 0.644,0.926 0.086,0.441 0.123,1.116 0.112,2.018 l 0,14.378 c 0.011,0.824 -0.023,1.435 -0.106,1.829 -0.086,0.411 -0.298,0.694 -0.645,0.816 -0.301,0.106 -0.752,0.156 -1.344,0.158 l 0,0.421 4.391,0.224 c -0.055,-0.975 -0.097,-1.972 -0.125,-2.991 -0.03,-1.064 -0.044,-1.993 -0.044,-2.788 l 0,-9.659 4.838,5.301 c 0.684,0.758 1.058,1.395 1.063,1.905 0.035,0.71 -0.682,1.031 -1.859,1.09 l 0,0.419 6.287,0 0,-0.426 C 34.763,13.595 34.434,13.526 34.155,13.43 33.851,13.327 33.539,13.177 33.221,12.985 32.898,12.79 32.628,12.611 32.409,12.448 32.186,12.281 31.923,12.044 31.62,11.736 31.317,11.429 30.879,10.963 30.303,10.337 l -1.597,-1.719 4.18,-6.575 c 0.477,-0.779 0.916,-1.33 1.319,-1.643 0.385,-0.298 0.876,-0.49 1.467,-0.581 l 0,-0.43 -3.823,0 C 31.744,-0.397 31.6,-0.12 31.416,0.22 L 30.808,1.329 30.343,2.164 27.249,7.206 24.818,4.486 24.812,2.962 c -0.011,-0.902 0.026,-1.577 0.113,-2.019 0.09,-0.454 0.302,-0.775 0.653,-0.926 0.307,-0.131 0.764,-0.2 1.358,-0.212 l 0,-0.416 -12.921,0 0,0.417 c 0.875,0.024 1.476,0.167 1.717,0.486 0.097,0.124 0.17,0.265 0.221,0.423 0.052,0.159 0.083,0.364 0.098,0.614 0.017,0.198 0.035,0.483 0.055,0.858 0.021,0.376 0.032,0.635 0.034,0.773 l 0,5.939 c 0.005,1.465 -0.152,2.549 -0.484,3.238 -0.503,1.084 -1.413,1.627 -2.703,1.632 -1.438,0.005 -2.585,-0.68 -3.435,-2.033 C 9.198,11.225 8.95,10.643 8.771,9.994 8.591,9.343 8.5,8.703 8.497,8.073 l 0,-5.111 C 8.486,2.05 8.524,1.371 8.612,0.93 8.702,0.476 8.917,0.157 9.273,0.01 c 0.311,-0.128 0.774,-0.194 1.378,-0.205 l 0,-0.416 -6.355,0.001 C 3.732,-0.629 2.659,-0.658 2.127,-0.651 1.569,-0.643 1.3,-0.584 0.791,-0.546 0.339,-0.414 0.149,-0.296 0,0 m -7.493,3.254 c 0.011,-0.962 0.245,-1.744 0.712,-2.334 0.468,-0.593 1.102,-0.897 1.884,-0.912 0.79,0.011 1.537,0.217 2.236,0.617 0.697,0.4 1.246,0.933 1.644,1.596 0.243,0.423 0.42,0.967 0.531,1.626 0.11,0.656 0.165,1.472 0.163,2.447 l 0,1.515 C -1.738,7.687 -2.75,7.554 -3.486,7.398 -4.227,7.241 -4.881,7.017 -5.451,6.724 -6.804,6.052 -7.483,4.887 -7.493,3.254"
               style="fill:#3a3a3a;fill-opacity:1;fill-rule:nonzero;stroke:none"
               id="path4318" />
          </g>
          <g
             id="g4320"
             transform="translate(336.2171,742.5007)">
            <path
               d="M 0,0 0,-5.265 C -0.011,-6.11 0.037,-6.737 0.145,-7.146 0.254,-7.556 0.488,-7.826 0.849,-7.958 1.21,-8.091 1.764,-8.165 2.511,-8.18 l 0,-0.735 -8.267,0 0,0.735 c 0.705,0.015 1.226,0.089 1.564,0.222 0.338,0.132 0.557,0.402 0.657,0.812 0.1,0.409 0.144,1.036 0.133,1.881 l 0,13.84 c 0.011,0.845 -0.033,1.473 -0.129,1.883 -0.097,0.41 -0.307,0.683 -0.63,0.819 -0.324,0.137 -0.82,0.217 -1.491,0.242 l 0,0.736 7.876,0 C 4.879,12.266 6.823,11.797 8.059,10.85 9.294,9.902 9.904,8.408 9.89,6.368 9.898,3.5 8.782,1.623 6.541,0.736 5.956,0.507 5.21,0.328 4.304,0.198 3.398,0.069 2.391,0.003 1.282,0 L 0,0 Z m 0,0.821 1.361,0 c 1.635,0.005 2.838,0.392 3.61,1.16 0.42,0.445 0.738,1.027 0.955,1.748 0.217,0.72 0.326,1.543 0.327,2.469 -0.009,3.486 -1.535,5.231 -4.579,5.236 L 0,11.434 0,0.821 Z"
               style="fill:#3a3a3a;fill-opacity:1;fill-rule:evenodd;stroke:none"
               id="path4322" />
          </g>
          <g
             id="g4324"
             transform="translate(359.4174,741.6118)">
            <path
               d="m 0,0 -9.62,0 c 0.011,-1.026 0.071,-1.887 0.181,-2.582 0.109,-0.694 0.285,-1.329 0.527,-1.904 0.799,-1.862 2.033,-2.792 3.703,-2.792 0.946,0.005 1.804,0.283 2.573,0.835 0.77,0.552 1.409,1.345 1.92,2.381 l 0.681,-0.452 c -0.67,-1.333 -1.488,-2.312 -2.454,-2.937 -0.966,-0.625 -2.145,-0.934 -3.537,-0.928 -2.19,0.028 -4.203,0.728 -5.465,2.098 -1.261,1.371 -1.904,3.249 -1.929,5.632 0.025,2.401 0.647,4.3 1.865,5.699 1.217,1.398 3.162,2.113 5.257,2.144 C -4.904,7.19 -3.559,6.873 -2.604,6.242 -1.649,5.61 -0.945,4.686 -0.49,3.47 -0.342,3.066 -0.23,2.604 -0.153,2.084 -0.077,1.564 -0.026,0.869 0,0 m -9.593,0.818 6.018,0 C -3.599,1.688 -3.646,2.389 -3.715,2.92 -3.783,3.451 -3.891,3.926 -4.038,4.344 -4.546,5.826 -5.327,6.559 -6.379,6.545 -7.559,6.535 -8.44,5.708 -9.021,4.062 -9.169,3.636 -9.288,3.169 -9.378,2.662 -9.468,2.155 -9.54,1.54 -9.593,0.818"
               style="fill:#3a3a3a;fill-opacity:1;fill-rule:evenodd;stroke:none"
               id="path4326" />
          </g>
          <g
             id="g4328"
             transform="translate(360.0326,748.4021)">
            <path
               d="M 0,0 5.336,0.369 C 5.364,-0.163 5.386,-0.611 5.4,-0.972 5.414,-1.334 5.421,-1.654 5.421,-1.93 l 0,-0.852 c 1.159,2.119 2.559,3.189 4.201,3.208 0.709,-0.014 1.285,-0.221 1.728,-0.621 0.442,-0.4 0.671,-0.913 0.684,-1.537 C 12.024,-2.251 11.832,-2.667 11.459,-2.98 11.087,-3.294 10.598,-3.455 9.991,-3.463 9.262,-3.486 8.818,-3.184 8.657,-2.555 8.552,-2.166 8.443,-1.901 8.33,-1.76 8.218,-1.619 8.052,-1.553 7.834,-1.561 l -0.057,0 C 7.219,-1.609 6.689,-2.053 6.188,-2.895 5.961,-3.316 5.79,-3.78 5.676,-4.29 5.563,-4.799 5.506,-5.384 5.506,-6.046 l 0,-5.251 c -0.011,-0.838 0.03,-1.456 0.122,-1.853 0.092,-0.397 0.301,-0.657 0.627,-0.78 0.325,-0.122 0.833,-0.191 1.522,-0.205 l 0,-0.682 -7.89,0 0,0.682 c 0.643,-0.003 1.119,0.059 1.429,0.187 0.31,0.127 0.511,0.393 0.604,0.798 0.092,0.406 0.133,1.023 0.124,1.853 l 0,7.863 C 2.07,-2.264 1.953,-1.504 1.692,-1.153 1.432,-0.802 0.867,-0.645 0,-0.681 L 0,0 Z"
               style="fill:#3a3a3a;fill-opacity:1;fill-rule:nonzero;stroke:none"
               id="path4330" />
          </g>
          <g
             id="g4332"
             transform="translate(378.4055,748.7701)">
            <path
               d="m 0,0 0.029,-2.81 c 1.149,1.892 2.795,2.848 4.938,2.867 2.181,0.014 3.524,-0.979 4.03,-2.981 0.617,1.031 1.321,1.787 2.111,2.268 0.791,0.48 1.714,0.718 2.771,0.713 1.67,-0.01 2.9,-0.558 3.69,-1.646 0.309,-0.412 0.528,-0.916 0.66,-1.512 0.131,-0.596 0.195,-1.369 0.191,-2.32 l 0,-6.244 c -0.009,-0.83 0.032,-1.447 0.124,-1.852 0.093,-0.406 0.294,-0.672 0.604,-0.799 0.31,-0.128 0.786,-0.19 1.43,-0.187 l 0,-0.682 -7.692,0 0,0.682 c 0.615,-0.003 1.071,0.059 1.369,0.187 0.298,0.127 0.492,0.393 0.582,0.799 0.09,0.405 0.13,1.022 0.121,1.852 l 0,6.216 c 0.006,1.491 -0.177,2.567 -0.55,3.228 -0.374,0.661 -0.975,0.985 -1.806,0.972 C 11.604,-1.23 10.762,-1.75 10.076,-2.81 9.485,-3.695 9.191,-4.65 9.196,-5.677 l 0,-5.988 c -0.009,-0.83 0.031,-1.447 0.122,-1.852 0.09,-0.406 0.287,-0.672 0.589,-0.799 0.302,-0.128 0.765,-0.19 1.389,-0.187 l 0,-0.682 -7.606,0 0,0.682 c 0.615,-0.003 1.072,0.059 1.369,0.187 0.298,0.127 0.492,0.393 0.582,0.799 0.09,0.405 0.13,1.022 0.121,1.852 l 0,6.244 C 5.776,-2.611 5.01,-1.22 3.463,-1.249 2.5,-1.283 1.693,-1.74 1.043,-2.618 0.393,-3.497 0.055,-4.592 0.029,-5.904 l 0,-5.761 c -0.009,-0.839 0.031,-1.461 0.121,-1.865 0.089,-0.405 0.283,-0.669 0.581,-0.793 0.298,-0.124 0.754,-0.184 1.369,-0.18 l 0,-0.682 -7.692,0 0,0.682 c 0.644,-0.004 1.12,0.056 1.43,0.18 0.31,0.124 0.512,0.388 0.604,0.793 0.092,0.404 0.133,1.026 0.124,1.865 l 0,7.89 c 0.029,1.155 -0.086,1.903 -0.348,2.246 -0.261,0.342 -0.845,0.502 -1.752,0.479 l 0,0.681 L 0,0 Z"
               style="fill:#3a3a3a;fill-opacity:1;fill-rule:nonzero;stroke:none"
               id="path4334" />
          </g>
          <g
             id="g4336"
             transform="translate(419.1626,747.4713)">
            <path
               d="m 0,0 0,-9.48 c -0.001,-0.617 0.022,-1.128 0.067,-1.532 0.046,-0.404 0.118,-0.745 0.217,-1.022 0.12,-0.317 0.305,-0.57 0.557,-0.759 0.251,-0.189 0.529,-0.287 0.833,-0.291 0.606,0.009 1.268,0.302 1.987,0.88 l 0.397,-0.71 c -1.139,-0.955 -2.436,-1.428 -3.888,-1.419 -1.566,0.024 -2.635,0.544 -3.207,1.561 -0.112,0.225 -0.2,0.482 -0.262,0.77 -0.062,0.288 -0.105,0.677 -0.129,1.166 -0.024,0.49 -0.036,1.151 -0.035,1.981 l 0,8.855 -1.618,0 0,0.851 c 0.618,0.024 1.142,0.154 1.572,0.391 0.43,0.237 0.805,0.608 1.125,1.114 0.251,0.385 0.458,0.814 0.621,1.284 0.162,0.471 0.305,1.055 0.429,1.753 L 0.085,5.535 C 0.066,5.159 0.05,4.778 0.038,4.392 0.025,4.006 0.016,3.541 0.01,2.997 0.003,2.454 0,1.757 0,0.909 l 3.434,0 L 3.434,0 0,0 Z"
               style="fill:#3a3a3a;fill-opacity:1;fill-rule:nonzero;stroke:none"
               id="path4338" />
          </g>
          <g
             id="g4340"
             transform="translate(414.0678,734.1865)">
            <path
               d="m 0,0 0,-0.6 c -0.831,-0.055 -1.166,-0.054 -2.039,-0.055 -0.693,-0.001 -1.41,0.011 -2.005,0.235 -0.368,0.138 -0.574,0.256 -0.848,0.546 C -5.084,0.43 -5.206,0.446 -5.268,1.293 -6,0.502 -6.763,-0.08 -7.555,-0.452 c -0.793,-0.373 -1.649,-0.557 -2.566,-0.554 -1.362,0.015 -2.427,0.391 -3.196,1.129 -0.77,0.738 -1.161,1.752 -1.175,3.044 -0.005,2.436 1.51,3.95 4.542,4.541 1.367,0.265 2.918,0.444 4.654,0.539 l 0,1.845 c 0.015,1.478 -0.142,2.503 -0.468,3.072 -0.326,0.57 -0.908,0.842 -1.746,0.816 -0.889,0.019 -1.523,-0.302 -1.901,-0.965 -0.138,-0.227 -0.238,-0.489 -0.302,-0.784 -0.063,-0.295 -0.114,-0.705 -0.152,-1.231 -0.023,-0.505 -0.17,-0.864 -0.44,-1.078 -0.271,-0.214 -0.702,-0.318 -1.292,-0.313 -1.315,0.01 -1.977,0.445 -1.987,1.306 0.005,0.502 0.16,0.981 0.466,1.437 0.305,0.456 0.737,0.857 1.295,1.203 1.182,0.728 2.733,1.087 4.654,1.078 1.954,0.009 3.354,-0.378 4.201,-1.164 0.381,-0.359 0.661,-0.818 0.84,-1.376 0.18,-0.558 0.268,-1.272 0.267,-2.143 L -1.89,7.481 -1.918,5.012 C -1.942,4.203 -1.951,3.692 -1.947,3.479 -1.957,2.456 -1.924,1.708 -1.85,1.237 -1.776,0.765 -1.694,0.558 -1.384,0.302 -0.842,-0.008 -0.378,0.001 0,0 m -5.296,5.409 0,2.185 C -7.328,7.456 -8.769,7.08 -9.62,6.466 c -0.851,-0.614 -1.264,-1.572 -1.239,-2.874 0.009,-1.021 0.219,-1.831 0.628,-2.43 0.41,-0.599 0.967,-0.905 1.671,-0.919 0.578,0.006 1.111,0.172 1.6,0.501 0.489,0.327 0.874,0.785 1.153,1.372 0.183,0.36 0.314,0.798 0.394,1.317 0.08,0.519 0.119,1.177 0.117,1.976"
               style="fill:#3a3a3a;fill-opacity:1;fill-rule:evenodd;stroke:none"
               id="path4342" />
          </g>
          <g
             id="g4344"
             transform="translate(438.5056,734.1865)">
            <path
               d="m 0,0 0,-0.6 c -0.831,-0.055 -1.166,-0.056 -2.039,-0.057 -0.693,-0.001 -1.41,0.011 -2.005,0.235 -0.368,0.138 -0.574,0.256 -0.848,0.546 -0.192,0.304 -0.314,0.32 -0.376,1.167 C -6,0.5 -6.763,-0.082 -7.556,-0.454 c -0.792,-0.373 -1.648,-0.557 -2.565,-0.554 -1.362,0.015 -2.427,0.391 -3.196,1.129 -0.77,0.738 -1.161,1.752 -1.175,3.044 -0.005,2.436 1.509,3.95 4.542,4.541 1.367,0.265 2.918,0.444 4.654,0.539 l 0,1.845 c 0.015,1.478 -0.142,2.503 -0.468,3.072 -0.327,0.57 -0.909,0.842 -1.746,0.816 -0.889,0.019 -1.523,-0.302 -1.901,-0.965 -0.138,-0.227 -0.239,-0.489 -0.302,-0.784 -0.063,-0.295 -0.114,-0.705 -0.152,-1.231 -0.023,-0.505 -0.17,-0.864 -0.44,-1.079 -0.271,-0.213 -0.702,-0.317 -1.292,-0.312 -1.315,0.01 -1.977,0.445 -1.987,1.306 0.005,0.502 0.16,0.981 0.466,1.437 0.305,0.456 0.737,0.857 1.294,1.203 1.183,0.728 2.734,1.087 4.655,1.078 1.954,0.009 3.354,-0.378 4.201,-1.164 0.381,-0.359 0.661,-0.818 0.84,-1.376 0.18,-0.558 0.268,-1.272 0.267,-2.143 L -1.89,7.479 -1.918,5.01 C -1.942,4.201 -1.951,3.69 -1.947,3.477 -1.957,2.454 -1.924,1.706 -1.85,1.234 -1.776,0.763 -1.694,0.556 -1.384,0.3 -0.842,-0.01 -0.378,0.001 0,0 m -5.296,5.407 0,2.185 C -7.328,7.454 -8.77,7.078 -9.62,6.464 -10.471,5.85 -10.884,4.892 -10.859,3.59 c 0.009,-1.021 0.219,-1.831 0.628,-2.43 0.41,-0.599 0.967,-0.905 1.671,-0.919 0.578,0.006 1.111,0.172 1.6,0.501 0.489,0.328 0.873,0.785 1.153,1.373 0.183,0.358 0.314,0.797 0.394,1.316 0.08,0.518 0.119,1.177 0.117,1.976"
               style="fill:#3a3a3a;fill-opacity:1;fill-rule:evenodd;stroke:none"
               id="path4346" />
          </g>
          <g
             id="g4348"
             transform="translate(496.9478,769.0936)">
            <path
               d="m 0,0 -0.056,-1.093 20.973,-24.603 0.753,-0.123 0.095,0.047 0.368,0.682 L 13.189,4.848 11.671,5.871 0,0 Z"
               style="fill:#0097b9;fill-opacity:1;fill-rule:nonzero;stroke:none"
               id="path4350" />
          </g>
        </g>
      </g>
      <g
         id="g4352"
         transform="matrix(1.25,0,0,-1.25,-175.22899,1127.7738)">
        <g
           id="g4354"
           clip-path="url(#clipPath4356-6)">
          <g
             id="g4360"
             transform="translate(503.1503,766.8051)">
            <path
               d="m 0,0 15.51,-23.596 -0.825,0.135 -21,24.667 L 0,0 Z"
               style="fill:#005874;fill-opacity:1;fill-rule:evenodd;stroke:none"
               id="path4362" />
          </g>
          <g
             id="g4364"
             transform="translate(508.6408,774.991)">
            <path
               d="M 0,0 1.513,-1.027 -3.186,-7.275 -5.368,-6.321 0,0 Z"
               style="fill:#2fb8e7;fill-opacity:1;fill-rule:nonzero;stroke:none"
               id="path4366" />
          </g>
          <g
             id="g4368"
             transform="translate(503.2719,768.6708)">
            <path
               d="M 0,0 -0.122,-1.866 -6.436,-0.66 -6.37,0.425 0,0 Z"
               style="fill:#007592;fill-opacity:1;fill-rule:nonzero;stroke:none"
               id="path4370" />
          </g>
          <g
             id="g4372"
             transform="translate(505.4545,767.7152)">
            <path
               d="M 0,0 4.709,6.258 13.766,-23.705 13.305,-24.48 0,0 Z"
               style="fill:#007592;fill-opacity:1;fill-rule:nonzero;stroke:none"
               id="path4374" />
          </g>
        </g>
      </g>
      <g
         id="g4376"
         transform="matrix(1.25,0,0,-1.25,-175.22899,1127.7738)">
        <g
           id="g4378"
           clip-path="url(#clipPath4380-4)">
          <g
             id="g4384"
             transform="translate(530.605,775.5576)">
            <path
               d="m 0,0 13.561,-6.235 0.025,-1.759 -22.255,-33.711 -1.016,-0.268 -0.15,0.069 -0.317,0.76 8.97,40.487 L 0,0 Z"
               style="fill:#80b13a;fill-opacity:1;fill-rule:nonzero;stroke:none"
               id="path4386" />
          </g>
        </g>
      </g>
      <g
         id="g4388"
         transform="matrix(1.25,0,0,-1.25,-175.22899,1127.7738)">
        <g
           id="g4390"
           clip-path="url(#clipPath4392-2)">
          <g
             id="g4396"
             transform="translate(544.2377,767.5679)">
            <path
               d="M 0,0 -22.237,-33.784 -23.374,-34.115 -9.081,-0.773 0,0 Z"
               style="fill:#6e9123;fill-opacity:1;fill-rule:nonzero;stroke:none"
               id="path4398" />
          </g>
          <g
             id="g4400"
             transform="translate(532.5958,768.2032)">
            <path
               d="m 0,0 -11.86,-34.646 -0.334,0.85 L -3.189,6.732 0,0 Z"
               style="fill:#3f7937;fill-opacity:1;fill-rule:nonzero;stroke:none"
               id="path4402" />
          </g>
          <g
             id="g4404"
             transform="translate(544.2018,769.3232)">
            <path
               d="M 0,0 0.036,-1.755 -9.045,-2.529 -9.557,-0.124 0,0 Z"
               style="fill:#a5c550;fill-opacity:1;fill-rule:nonzero;stroke:none"
               id="path4406" />
          </g>
          <g
             id="g4408"
             transform="translate(534.6451,769.1994)">
            <path
               d="M 0,0 -2.05,-0.994 -5.24,5.739 -4.068,6.4 0,0 Z"
               style="fill:#5d8b27;fill-opacity:1;fill-rule:nonzero;stroke:none"
               id="path4410" />
          </g>
        </g>
      </g>
      <g
         id="g4412"
         transform="matrix(1.25,0,0,-1.25,-175.22899,1127.7738)">
        <g
           id="g4414"
           clip-path="url(#clipPath4416-4)">
          <g
             id="g4420"
             transform="translate(509.89,785.1495)">
            <path
               d="m 0,0 0.54,1.04 17.362,0.188 1.122,-1.165 -8.318,-27.791 -0.527,-0.306 -0.017,10e-4 -0.57,0.384 L 0,0 Z"
               style="fill:#d81936;fill-opacity:1;fill-rule:nonzero;stroke:none"
               id="path4422" />
          </g>
        </g>
      </g>
      <g
         id="g4424"
         transform="matrix(1.25,0,0,-1.25,-175.22899,1127.7738)">
        <g
           id="g4426"
           clip-path="url(#clipPath4428-3)">
          <g
             id="g4432"
             transform="translate(517.8674,783.2803)">
            <path
               d="M 0,0 -1.251,-1.478 -8.036,1.901 -7.488,2.929 0,0 Z"
               style="fill:#af2c35;fill-opacity:1;fill-rule:nonzero;stroke:none"
               id="path4434" />
          </g>
          <g
             id="g4436"
             transform="translate(509.8304,785.1813)">
            <path
               d="m 0,0 6.786,-3.379 3.44,-24.743 -0.602,0.41 L 0,0 Z"
               style="fill:#762624;fill-opacity:1;fill-rule:nonzero;stroke:none"
               id="path4438" />
          </g>
          <g
             id="g4440"
             transform="translate(519.8806,781.7987)">
            <path
               d="M 0,0 9.064,3.426 0.758,-24.415 0.188,-24.739 0,0 Z"
               style="fill:#b22b37;fill-opacity:1;fill-rule:nonzero;stroke:none"
               id="path4442" />
          </g>
          <g
             id="g4444"
             transform="translate(517.8683,783.2803)">
            <path
               d="M 0,0 2.012,-1.482 11.077,1.944 9.942,3.103 0,0 Z"
               style="fill:#dc505e;fill-opacity:1;fill-rule:nonzero;stroke:none"
               id="path4446" />
          </g>
        </g>
      </g>
    </g>
  </g>
</svg>
