<?xml version="1.0" encoding="UTF-8"?>
<!DOCTYPE svg PUBLIC "-//W3C//DTD SVG 1.1//EN" "http://www.w3.org/Graphics/SVG/1.1/DTD/svg11.dtd">
<!-- Creator: CorelDRAW X7 -->
<svg xmlns="http://www.w3.org/2000/svg" xml:space="preserve" width="8.26772in" height="3.63496in" version="1.1" style="shape-rendering:geometricPrecision; text-rendering:geometricPrecision; image-rendering:optimizeQuality; fill-rule:evenodd; clip-rule:evenodd"
viewBox="0 0 8268 3635"
 xmlns:xlink="http://www.w3.org/1999/xlink">
 <defs>
  <style type="text/css">
   <![CDATA[
    .fil1 {fill:#FEFEFE}
    .fil0 {fill:#EE4E2C}
    .fil2 {fill:#EE4E2C;fill-rule:nonzero}
   ]]>
  </style>
 </defs>
 <g id="Layer_x0020_1">
  <metadata id="CorelCorpID_0Corel-Layer"/>
  <path class="fil0" d="M400 583l2665 0c177,0 322,145 322,322l0 1865c0,177 -145,322 -322,322l-2743 0c-177,0 -322,-145 -322,-322l0 -2304c0,-84 69,-142 152,-152l2458 -314c84,0 152,69 152,152l0 261 -2516 0c0,110 33,170 154,170zm1495 2043l0 0c-225,43 -513,-31 -670,-200 -70,-76 44,-191 115,-114 105,113 293,167 447,163 195,-4 369,-182 258,-381 -154,-275 -532,-198 -727,-414 -158,-174 -83,-448 102,-570 193,-127 526,-122 684,60 68,78 -46,193 -114,114 -128,-147 -431,-127 -546,24 -165,216 81,332 253,384 236,72 498,202 541,473 34,218 -134,421 -343,461z"/>
  <path class="fil1" d="M1895 2626l0 0c-225,43 -513,-31 -670,-200 -70,-76 44,-191 115,-114 105,113 293,167 447,163 195,-4 369,-182 258,-381 -154,-275 -532,-198 -727,-414 -158,-174 -83,-448 102,-570 193,-127 526,-122 684,60 68,78 -46,193 -114,114 -128,-147 -431,-127 -546,24 -165,216 81,332 253,384 236,72 498,202 541,473 34,218 -134,421 -343,461z"/>
  <path class="fil2" d="M6485 468c-95,0 -181,41 -240,105l0 -75c0,-67 -108,-67 -108,0l0 880c0,68 108,68 108,0l0 -392c59,65 145,105 240,105 177,0 321,-140 321,-312 0,-171 -144,-311 -321,-311zm0 510l0 0c-113,0 -205,-89 -205,-199 0,-98 75,-181 172,-196 1,0 1,0 2,0 10,-2 21,-2 31,-2 84,0 156,48 188,118 0,1 0,1 0,1 11,25 17,51 17,79 0,110 -92,199 -205,199zm-796 113c-177,0 -321,-140 -321,-312 0,-171 144,-311 321,-311 177,0 321,140 321,311 0,172 -144,312 -321,312zm0 -510l0 0c-113,0 -205,89 -205,198 0,110 92,199 205,199 113,0 204,-89 204,-199 0,-109 -91,-198 -204,-198zm2579 192c-3,-143 -79,-272 -235,-301 -135,-24 -292,44 -350,167 -59,127 -34,302 83,390 128,96 326,66 457,-4 60,-33 6,-124 -55,-91 -83,45 -191,67 -283,37 -70,-22 -109,-80 -120,-145l449 0c28,0 54,-24 54,-53zm-499 -52l0 0c0,-4 1,-8 3,-12 25,-85 114,-134 203,-137 103,-2 161,66 179,149l-385 0zm-220 53c-3,-143 -78,-272 -235,-301 -134,-25 -292,44 -349,167 -60,127 -35,301 83,390 127,96 325,66 456,-5 60,-32 6,-123 -55,-90 -83,45 -191,67 -283,37 -70,-22 -109,-80 -120,-145l449 0c29,0 54,-25 54,-53zm-499 -52l0 0c1,-4 2,-8 3,-12 26,-85 114,-134 203,-137 103,-2 161,66 179,149l-385 0zm-1809 -49l0 364c0,69 -108,69 -108,0l0 -357c-4,-70 -64,-103 -66,-103 -77,-34 -216,-18 -299,87l0 373c0,69 -108,69 -108,0l0 -934c0,-69 108,-69 108,0l0 419c132,-88 300,-78 379,-24 0,0 96,52 94,175zm-759 -527c-105,-117 -328,-120 -456,-39 -124,78 -174,255 -69,366 130,139 383,90 486,266 74,128 -42,242 -173,245 -102,2 -227,-32 -298,-105 -47,-49 -124,24 -76,73 104,109 297,157 446,129 140,-26 253,-156 230,-296 -29,-174 -204,-258 -361,-304 -115,-33 -279,-108 -170,-246 78,-97 279,-110 365,-16 46,51 122,-23 76,-73z"/>
  <path class="fil0" d="M7298 3635l-343 0 367 -694 -602 -1138 372 0 416 787 417 -787 343 0 -970 1832zm-3417 -543l287 0 0 -525 388 0c402,0 728,-282 728,-630 0,-348 -326,-630 -728,-630l-675 0c0,595 0,1190 0,1785zm287 -813l0 -684 388 0c218,0 395,153 395,342 0,189 -177,342 -395,342l-388 0zm2192 -465l253 0 0 1267 -253 0 0 -142c-112,95 -258,153 -417,153 -356,0 -645,-288 -645,-644 0,-356 289,-645 645,-645 159,0 305,58 417,154l0 -143zm-417 261c206,0 373,167 373,373 0,206 -167,373 -373,373 -206,0 -373,-167 -373,-373 0,-206 167,-373 373,-373z"/>
 </g>
</svg>
